<?xml version="1.0" ?><svg viewBox="0 0 32 32" xmlns="http://www.w3.org/2000/svg"><defs><style>.cls-1{fill:#04009a;}.cls-2{fill:#77acf1;}</style></defs><g data-name="34. Save Box" id="_34._Save_Box"><path class="cls-1" d="M32,16.8a1.1,1.1,0,0,1-.15.8L24,28a5,5,0,0,1-4,2H11.66a3,3,0,0,0-2.12.88l-.83.83a1,1,0,0,1-1.42,0,1,1,0,0,1,0-1.42l.83-.83A5,5,0,0,1,11.66,28H20a3,3,0,0,0,2.4-1.2l7.07-9.42a3,3,0,0,0-3,.92l-4.59,5.23a0,0,0,0,0,0,0A1,1,0,0,1,21,24H13a1,1,0,0,1,0-2h7a2,2,0,0,0-2-2h-.93a4.52,4.52,0,0,1-2.52-.76,7.35,7.35,0,0,0-9.29.92L1.71,23.71A1,1,0,0,1,.29,22.29l3.55-3.55a9.38,9.38,0,0,1,11.82-1.17,2.54,2.54,0,0,0,1.41.43H18a4,4,0,0,1,3.74,2.64L24.94,17a5,5,0,0,1,6.53-.87A1.16,1.16,0,0,1,32,16.8Z"/><path class="cls-2" d="M16,1h4a0,0,0,0,1,0,0V4a1,1,0,0,1-1,1H17a1,1,0,0,1-1-1V1A0,0,0,0,1,16,1Z"/><path class="cls-1" d="M22,14H14a3,3,0,0,1-3-3V3a3,3,0,0,1,3-3h8a3,3,0,0,1,3,3v8A3,3,0,0,1,22,14ZM14,2a1,1,0,0,0-1,1v8a1,1,0,0,0,1,1h8a1,1,0,0,0,1-1V3a1,1,0,0,0-1-1Z"/></g></svg>