<svg xmlns="http://www.w3.org/2000/svg" width="561.513" height="86.679" viewBox="0 0 561.513 86.679">
  <g id="logos_envios_ViaCargo" transform="translate(-23.82 -44.561)">
    <path id="Trazado_21408" data-name="Trazado 21408" d="M32.48,46.41c1.25-.06,2.25-.14,3.24-.14,8.7,0,17.4.09,26.09,0,2.11,0,3,.49,3.49,2.73,2.38,11.49,5,22.93,7.51,34.39.16.69.4,1.35.71,2.41,1.54-1.27,2.81-2.3,4-3.36C89.6,72.1,101.73,61.8,113.74,51.38,117.65,48,121.69,46,127,46.26c8.2.36,16.43.09,25,.72-1.7,1.57-3.36,3.19-5.12,4.7Q122.57,72.49,98.17,93.26c-3.38,2.88-6.83,5.69-10,8.77a14.33,14.33,0,0,1-9.75,4c-9.14.42-18.29.71-27.44,1.16-1.93.09-2.82-.59-3.3-2.43Q40.36,76.91,33,49A16.84,16.84,0,0,1,32.48,46.41Z" fill="#00a54d"/>
    <path id="Trazado_21409" data-name="Trazado 21409" d="M488.69,117.64c-.11,1.24-.18,2.12-.25,2.94l-4.71,1.52a6.63,6.63,0,0,0,6.95,1.31c.73-.23,1.14-1.43,2.14-2.8l5.57-3.3c.34,1.55.52,2.37.64,2.93l-6.64,5.86c2.91,2.27,6,2.23,9.15-.15l-1.3-1.53,4.65-2L502.08,121c.08-.07.19-.24.3-.24,2.8-.06,4.35-4.62,7.89-1.9l.34,2-2.88,1.41,1,1.88L505.21,126c2.35,2.59,6.3,2.63,9.81.32-.34-.67-.69-1.36-1.08-2.15l2.39-1.13-.5-2.46,6.29-1.95.72.86-2.14,3.7.69,1.48c-1.34.71-4,.46-2.4,3.61-6.08.6-11.85,1.26-17.64,1.68-1.3.1-2.68-.56-4-.95-3.06-.9-5.93-1-8.69,1.09-1.24.93-2.76,2-3.88-.64-.68-1.62-6.63-1.51-8.57,0s-3.71,2.34-6-.14c-2-2.18-6.85-.74-7.74,1.92h-3.08c-.46-.92-.82-2.34-1.24-2.36-2.15-.09-4.62-.41-6.38.49s-2.63,2.41-4.67-.14c-.86-1.08-4.39-.62-6.42,0-2.19.69-3.93,2.4-5.49-.84-.62-1.28-4.65-1.14-6.53,0-2.11,1.3-3.77,2.38-5.87-.57-.73-1-4.48-1-6.06,0-1.91,1.12-3.35,1-4.75.06-2.6-1.75-5.09-1.32-7.62-.16-1.94.9-3.54.58-5.5-.24s-4.05-.57-6.1-.65c-2.44-.09-4.89,0-7.33,0-.83,0-1.65-.28-2.47-.31q-14.38-.37-28.77-.7c-48.73-1.19-97.46-2.81-146.19-3.43-41.06-.53-82.13,0-123.19.27-18.59.14-37.17,1-55.75,1.45H26.65l-.08-.76c3.41-.46,6.8-1.13,10.23-1.34,16.34-1,32.67-2.18,49-2.83,87.64-3.54,175.32-3.65,263-3.28,41.62.17,83.24.77,124.86,1.22C478.73,117.08,483.7,117.43,488.69,117.64Zm-8.24,8.53c2.8,2.17,6.48,1.93,8.57-.55C486.75,123.66,482.32,123.94,480.45,126.17Zm-12.4-.22c2.52,2.36,5,1,7.55.59-1.28-2.62-4.16-2.86-7.55-.54ZM457,125.74c3.35,1.86,5.75,1.64,7.34-.47C461.9,123.68,459.65,124,457,125.74Zm-10.41-.19c3,1.87,5,1.7,6.86-.38a5.86,5.86,0,0,0-6.86.38Zm26.5-2.87c2.65.94,4.84,1.55,7-.43-2.59-1.86-4.41-1.81-7,.43Zm-55.29,1.73c-3.07-1.23-4.08-1.11-5.68.67,2.71,1.53,4.46,1.32,5.68-.67Zm60.09-5.82v.94c1.8,1.42,3.6,1.33,5.42-.94Zm-48.82,7.17v-1.59l-5.8.36a7.252,7.252,0,0,0,.07,1.23Zm12.47.18c-2.35-2.48-4.6-2.42-6.63,0Zm-6.69-3.49c-2.33-2.4-4.53-2.35-6.27,0Zm28.83-1.23v1.21c1.94.87,3.83,1.29,5.5-.35l-.09-1.14Zm-39.93,1.1v-1.45l-5.37.24v1.21Zm-12.66.05v-1.11a4.36,4.36,0,0,0-5.14.33,9.662,9.662,0,0,0,.1,1Zm42.22-.92v1c1.87.87,3.72,1.24,6.16-1Zm-59.05-.86v1.08h5.05v-1.08Zm47.18.69v1.11h5.23v-1.11ZM369.28,124v-1.09h-5V124Zm10.25.11v-1h-5v1Zm13.33.47v-1H388v1Zm53.93-6.16.08,1.37,4.74-.28-.05-1.09ZM405,125.34c-2.34-2.46-3.88-1.69-5.42-.79v.79Zm29.7-7v1h4.83v-1Zm38.54,1.12v-1.48l-4.64.27.05,1.21Zm-14.36-1.17.09,1.36,4.69-.27-.05-1.09ZM355.73,122.7l.06,1h4.41v-1Zm68.15-4.33.11,1.39,4.39-.46-.08-.93Zm-37.34,3v-1h-4.82v1Z" fill="#e51928"/>
    <path id="Trazado_21410" data-name="Trazado 21410" d="M207.88,101c2.35-5.65,4.59-11.06,7-16.72A6.38,6.38,0,0,0,213,84q-9.14,2.27-18.23,4.61a2.61,2.61,0,0,0-1.23.62c-.88,1-2.57,2.47-2.33,2.92A5.85,5.85,0,0,0,194.45,95c1.91.46,4,.11,6.05.06,1,0,1.93-.18,3.37-.32-3,4.06-5.4,7.59-11,7.14s-11.09.24-16.61-.11c-5.37-.34-9.39-3.25-9.79-6.76-.54-4.79,2.52-7.76,6.13-10.07,5.75-3.68,12.38-4.7,19-5.75,6.2-1,12.42-1.87,18.63-2.81a22.43,22.43,0,0,0,2.71-.55c2.32-.68,5.29-1.28,4.82-4.25-.18-1.1-3.25-2.24-5.11-2.47-8.57-1.09-16.91.91-25.29,2.32-1.27.21-2.55.38-3.86.58.89-5,3.9-8.34,8.47-8.77,12.15-1.15,24.31-2.47,36.53-1.24a56.94,56.94,0,0,1,9.5,1.77c5,1.39,6.46,4.06,4.94,9-1.45,4.67-3.26,9.23-5,13.8-1.55,4-3.24,8-4.87,12.08a3.2,3.2,0,0,1-3.29,2.36C222.75,100.91,215.72,101,207.88,101Z" fill="#00a54d"/>
    <path id="Trazado_21411" data-name="Trazado 21411" d="M559.21,61.93c9.43.51,10.95,1,16.36,2.88a17.37,17.37,0,0,1,5.48,3c4.36,3.68,5.4,9.29,3.08,15.91-2.55,7.27-7.6,12.42-14.25,15.94a52.87,52.87,0,0,1-39,4.85c-14.35-3.66-18.49-15.33-9.8-27.35A32.66,32.66,0,0,1,536.1,66a56.8,56.8,0,0,1,7.06-2.21C548.15,62.56,549.78,62.44,559.21,61.93Zm-2.16,6.9c-13,.1-21.94,8.32-23,20.59-.36,4.2,1.23,7.1,4.66,8.55,5.3,2.25,17.09,1,22-5a28.87,28.87,0,0,0,6.45-14.48c.75-5.23-1.79-8.54-7-9.39a28.807,28.807,0,0,0-3.11-.27Z" fill="#e51928"/>
    <path id="Trazado_21412" data-name="Trazado 21412" d="M432.08,86.34l13.38,18.09c-6.64,0-12.32.06-18-.07-.68,0-1.5-1-2-1.71-2.43-3.59-4.65-7.33-7.19-10.84a20.26,20.26,0,0,0-4.54-4.32c-1.57-1.14-2.73-.71-3.39,1.43-1.32,4.32-3,8.55-4.42,12.83-.62,1.82-1.67,2.54-3.7,2.45-4.14-.19-8.29-.06-12.85-.06,1.92-5.32,3.71-10.24,5.49-15.16,3-8.42,6-16.86,9.17-25.25.35-.94,1.47-2.28,2.21-2.26,11.72.2,23.45.35,35.14,1.05,4.64.28,9,2.39,10,7.68s-2.27,9-6.55,11.47c-3.09,1.75-6.63,2.71-10,4A26.791,26.791,0,0,1,432.08,86.34Zm-18.18-7.2.62.88c4.57-.31,9.16-.47,13.7-1a9.5,9.5,0,0,0,4.45-2.08c3.17-2.51,2.69-6.17-1.16-7-4.09-.88-8.39-.76-12.61-1a1.7,1.7,0,0,0-1.32.8C416.3,72.85,415.11,76,413.9,79.14Z" fill="#e51928"/>
    <path id="Trazado_21413" data-name="Trazado 21413" d="M517.49,66.9c-2.58,1.42-5,3.3-7.78,4.12-1.92.57-4.38,0-6.4-.61A30.94,30.94,0,0,0,484,69.93,21.67,21.67,0,0,0,469.2,90.3a6.42,6.42,0,0,0,4.4,6.64c5.38,2.08,10.91,1.58,16.41.68a2.49,2.49,0,0,0,1.59-1.3c1-2.46,1.83-5,2.93-8H483.14c.23-2.71.41-5,.6-7.32h29.67c-1.07,3.42-2,6.49-3,9.51a87.586,87.586,0,0,1-3.46,9.06,5.42,5.42,0,0,1-3.06,2.77c-12.06,2.95-24.25,4.09-36.54,1.7a32,32,0,0,1-7.85-2.64c-7.11-3.51-9.6-9.89-6.92-17.42,2.87-8,8.52-13.6,16.18-17a64.25,64.25,0,0,1,43.34-3.4,32.459,32.459,0,0,1,5.44,2.5Z" fill="#e51928"/>
    <path id="Trazado_21414" data-name="Trazado 21414" d="M380.85,103.89c-5,0-10,.06-14.93-.07-.57,0-1.42-1-1.62-1.68a46.862,46.862,0,0,1-1.3-6.22c-.21-1.41-.69-2.08-2.26-2.08-5.17,0-10.35-.17-15.52-.31-3-.07-5.66.72-7.19,3.33-3.55,6-8.73,7.85-15.38,6.76-2-.33-4.16-.05-7.1-.05,2.55-2.87,4.48-5.16,6.54-7.34,10.53-11.14,21.12-22.23,31.6-33.41a5.42,5.42,0,0,1,4.55-2c4.07.13,8.14.13,12.2.06,1.58,0,2.25.49,2.56,2.09,2.6,13.32,5.29,26.63,7.95,39.94a4.9,4.9,0,0,1-.1.98Zm-21-32.17L348,86h13.21c-.47-4.64-.87-9-1.35-14.28Z" fill="#e51928"/>
    <path id="Trazado_21415" data-name="Trazado 21415" d="M313.33,100.81c-4.5,1-8.83,2.18-13.25,2.81a57.33,57.33,0,0,1-22.84-1.18,34,34,0,0,1-4.71-1.63c-10-4.39-12.39-13.24-6.47-22.52,7.44-11.66,18.85-16.07,31.68-18a52.42,52.42,0,0,1,25.18,2.1,11.671,11.671,0,0,1,1.27.52c.15.07.25.24.76.78-4.25,1.93-7,6-12.86,4.63A39.92,39.92,0,0,0,296.76,68c-9.06,1.51-16.22,11.27-16,20.46.1,3.76,1.81,6.06,5.59,7.38,6,2.1,12.06,1.18,18.05-.22C308.94,94.59,311,95.64,313.33,100.81Z" fill="#e51928"/>
    <path id="Trazado_21416" data-name="Trazado 21416" d="M171.62,61.86l-7,16.35c-3.18,7.47-6.31,15-9.59,22.39a3.73,3.73,0,0,1-2.44,2c-7.84.34-15.69.46-23.53.64a10.23,10.23,0,0,1-1.58-.28c.4-1,.69-1.8,1.06-2.59,5.74-12.08,11.54-24.14,17.2-36.26a3.84,3.84,0,0,1,4.2-2.6c6.09.21,12.19.12,18.29.16C169.24,61.71,170.22,61.79,171.62,61.86Z" fill="#00a44e"/>
    <path id="Trazado_21417" data-name="Trazado 21417" d="M584.73,117.37c-2.27,0-4.54.11-6.8,0q-101-5.28-202.2-5.19c-68.55.07-137.1,0-205.64.55-32.82.28-65.63,1.83-98.44,3.1-14,.54-28.05,1.86-42.08,2.78-1.9.13-3.83,0-5.75,0v-.7c2.05-.16,4.11-.34,6.16-.47,121.13-7.73,242.39-7.5,363.67-6.16,45.13.5,90.26,1.73,135.38,2.85,17.75.44,35.49,1.48,53.23,2.27a22.387,22.387,0,0,1,2.56.42Z" fill="#e51928"/>
    <path id="Trazado_21418" data-name="Trazado 21418" d="M151.85,56.15c4.54-8.22,18.22-13.4,29.33-11-2.34,3.62-4.55,7.09-6.82,10.52a1.65,1.65,0,0,1-1.21.51C166.15,56.16,159.15,56.15,151.85,56.15Z" fill="#e51928"/>
    <path id="Trazado_21419" data-name="Trazado 21419" d="M535.6,124.71c-2.94,1.27-5.58,3.77-8.3.15l2.7-2-1.55-1.81a16,16,0,0,1,3.29-1.82c2.14-.61,4.21-.39,5.64,1.83C537,122.33,533.29,121.94,535.6,124.71Z" fill="#e51928"/>
    <path id="Trazado_21420" data-name="Trazado 21420" d="M550.45,121c-.8,1.2-4.23,1-1.76,4h-8.12l3.47-1.92L543,121.3C546.43,119.07,547.82,119,550.45,121Z" fill="#e51928"/>
    <path id="Trazado_21421" data-name="Trazado 21421" d="M555.8,120.7l7.31-.47C559.29,125.29,557.59,124.65,555.8,120.7Z" fill="#e51928"/>
    <path id="Trazado_21422" data-name="Trazado 21422" d="M575.59,121.18c-3.33,2.59-4.69,2.59-6.83,0Z" fill="#e51928"/>
  </g>
</svg>