<?xml version="1.0" encoding="utf-8"?>
<!-- Generator: Adobe Illustrator 25.0.0, SVG Export Plug-In . SVG Version: 6.00 Build 0)  -->
<svg version="1.1" id="Layer_1" xmlns="http://www.w3.org/2000/svg" xmlns:xlink="http://www.w3.org/1999/xlink" x="0px" y="0px"
	 viewBox="0 0 536.9 133.9" style="enable-background:new 0 0 536.9 133.9;" xml:space="preserve">
<style type="text/css">
	.st0{fill-rule:evenodd;clip-rule:evenodd;fill:#00B1F2;}
	.st1{fill-rule:evenodd;clip-rule:evenodd;fill:#FFFFFF;}
	.st2{fill-rule:evenodd;clip-rule:evenodd;fill:#475992;}
	.st3{fill:#162269;}
	.st4{fill:none;}
</style>
<g id="Grupo_35382" transform="translate(-85.92 -558.263)">
	<path id="Trazado_7229" class="st0" d="M-456.1,577.4c1-1.8,3.2-2.5,5-1.6c1.8,1,2.5,3.2,1.6,5c-1,1.8-3.2,2.5-5,1.6l0,0
		C-456.3,581.5-457,579.3-456.1,577.4C-456.1,577.4-456.1,577.4-456.1,577.4z"/>
	<path id="Trazado_7230" class="st0" d="M-447.3,582.1c1.2-2.4,4.1-3.4,6.5-2.2c0,0,0,0,0.1,0c2.4,1.2,3.3,4.1,2.1,6.4
		c-0.1,0.2-0.2,0.3-0.3,0.5c-1.2,2.4-4.1,3.4-6.5,2.2c0,0,0,0-0.1,0C-447.7,587.5-448.5,584.5-447.3,582.1z"/>
	<path id="Trazado_7231" class="st0" d="M-436.6,588c1.5-2.9,5-4,7.8-2.5l0,0c2.7,1.6,3.8,5,2.5,7.8c-1.5,2.9-5,4-7.8,2.5l0,0
		C-436.9,594.3-438,590.9-436.6,588z"/>
	<path id="Trazado_7232" class="st0" d="M-425.4,594c1.5-3.2,5.3-4.6,8.5-3.1c0.2,0.1,0.4,0.2,0.6,0.3c3.2,2,4.4,6,2.8,9.4
		c-1.5,3.2-5.3,4.6-8.5,3.1c-0.2-0.1-0.4-0.2-0.6-0.3c-3.3-1.7-4.7-5.8-2.9-9.2C-425.4,594.1-425.4,594.1-425.4,594L-425.4,594z"/>
	<path id="Trazado_7233" class="st0" d="M-413.5,600.6c1.8-3.7,6.3-5.2,9.9-3.4c0.1,0.1,0.3,0.1,0.4,0.2c3.8,2.1,5.2,6.8,3.2,10.6
		l0,0c-1.8,3.7-6.3,5.2-9.9,3.4c-0.1-0.1-0.3-0.1-0.4-0.2C-414.1,609.2-415.5,604.5-413.5,600.6
		C-413.5,600.7-413.5,600.6-413.5,600.6z"/>
	<path id="Trazado_7234" class="st0" d="M-401.2,607.1c2.1-4.3,7.3-6.2,11.6-4.1c0.2,0.1,0.4,0.2,0.6,0.3c4.4,2.5,6.3,8.1,3.8,12.5
		c-2.1,4.3-7.3,6.2-11.6,4.1c-0.2-0.1-0.4-0.2-0.6-0.3C-402.2,617.5-403.7,611.8-401.2,607.1L-401.2,607.1z"/>
	<path id="Trazado_7235" class="st0" d="M-463,590.5c1-1.8,3.2-2.5,5-1.6c1.8,1,2.5,3.2,1.6,5c-1,1.8-3.2,2.5-5,1.6l0,0
		C-463.2,594.6-463.9,592.4-463,590.5C-463,590.6-463,590.6-463,590.5z"/>
	<path id="Trazado_7236" class="st0" d="M-454.2,595.2c1.2-2.4,4.1-3.4,6.5-2.2c0,0,0,0,0.1,0c2.4,1.2,3.3,4.1,2.1,6.4
		c-0.1,0.2-0.2,0.3-0.3,0.5c-1.2,2.4-4.1,3.4-6.5,2.2c0,0,0,0-0.1,0C-454.6,600.7-455.4,597.7-454.2,595.2z"/>
	<path id="Trazado_7237" class="st0" d="M-443.2,601.2c1.5-2.9,5-4,7.8-2.5l0,0c2.7,1.6,3.8,5,2.5,7.8c-1.5,2.9-5,4-7.8,2.5l0,0
		c-2.8-1.2-4-4.4-2.8-7.2C-443.4,601.6-443.3,601.4-443.2,601.2z"/>
	<path id="Trazado_7238" class="st0" d="M-432.3,607.5c1.5-3.2,5.3-4.6,8.5-3.1c0.2,0.1,0.4,0.2,0.6,0.3c3.2,2,4.4,6,2.8,9.4
		c-1.5,3.2-5.3,4.6-8.5,3.1c-0.2-0.1-0.4-0.2-0.6-0.3C-432.8,615.1-434.1,610.9-432.3,607.5L-432.3,607.5z"/>
	<path id="Trazado_7239" class="st0" d="M-420.3,613.7c1.8-3.7,6.3-5.2,9.9-3.4c0.1,0.1,0.3,0.1,0.4,0.2c3.8,2.1,5.2,6.8,3.2,10.6
		l0,0c-1.8,3.7-6.3,5.2-9.9,3.4c-0.1-0.1-0.3-0.1-0.4-0.2c-3.8-1.9-5.2-6.6-3.3-10.3C-420.5,613.9-420.4,613.8-420.3,613.7z"/>
	<path id="Trazado_7240" class="st0" d="M-408.1,620.6c2.1-4.3,7.3-6.2,11.6-4.1c0.2,0.1,0.4,0.2,0.6,0.3c4.4,2.5,6.3,8.1,3.8,12.5
		c-2.1,4.3-7.3,6.2-11.6,4.1c-0.2-0.1-0.4-0.2-0.6-0.3C-408.9,630.7-410.5,625.1-408.1,620.6L-408.1,620.6L-408.1,620.6z"/>
	<path id="Trazado_7241" class="st0" d="M-469.2,602.8c1-1.8,3.2-2.5,5-1.6c1.8,1,2.5,3.2,1.6,5c-1,1.8-3.2,2.5-5,1.6l0,0
		C-469.4,606.9-470.1,604.7-469.2,602.8C-469.3,602.8-469.3,602.8-469.2,602.8z"/>
	<path id="Trazado_7242" class="st0" d="M-460.5,607.5c1.2-2.4,4.1-3.4,6.5-2.2c0,0,0,0,0.1,0c2.4,1.2,3.3,4.1,2.1,6.4
		c-0.1,0.2-0.2,0.3-0.3,0.5c-1.2,2.4-4.1,3.4-6.5,2.2c0,0,0,0-0.1,0C-460.9,612.9-461.7,609.9-460.5,607.5z"/>
	<path id="Trazado_7243" class="st0" d="M-449.8,613.4c1.5-2.9,5-4,7.8-2.5l0,0c2.7,1.6,3.8,5,2.5,7.8c-1.5,2.9-5,4-7.8,2.5l0,0
		C-450.1,620-451.1,616.2-449.8,613.4z"/>
	<path id="Trazado_7244" class="st0" d="M-438.5,619.7c1.5-3.2,5.3-4.6,8.5-3.1c0.2,0.1,0.4,0.2,0.6,0.3c3.2,2,4.4,6,2.8,9.4
		c-1.5,3.2-5.4,4.6-8.6,3.1c-0.2-0.1-0.3-0.2-0.5-0.2C-439.2,626.9-440.4,622.8-438.5,619.7L-438.5,619.7z"/>
	<path id="Trazado_7245" class="st0" d="M-426.6,626c1.8-3.7,6.3-5.2,9.9-3.4c0.1,0.1,0.3,0.1,0.4,0.2c3.8,2.1,5.2,6.8,3.2,10.6l0,0
		c-1.8,3.7-6.3,5.2-9.9,3.4c-0.1-0.1-0.3-0.1-0.4-0.2c-3.8-1.9-5.2-6.6-3.3-10.3C-426.7,626.2-426.7,626.1-426.6,626L-426.6,626z"/>
	<path id="Trazado_7246" class="st0" d="M-414.4,632.8c2.1-4.3,7.3-6.2,11.6-4.1c0.2,0.1,0.4,0.2,0.6,0.3c4.4,2.5,6.3,8.1,3.8,12.5
		c-2.1,4.3-7.3,6.2-11.6,4.1c-0.2-0.1-0.4-0.2-0.6-0.3c-4.5-2.3-6.2-7.7-3.9-12.2C-414.5,633.1-414.5,633-414.4,632.8L-414.4,632.8z
		"/>
	<path id="Trazado_7247" class="st0" d="M-475.5,615.3c1-1.8,3.2-2.5,5-1.6c1.8,0.9,2.5,3.2,1.6,5c-1,1.8-3.2,2.5-5,1.6l0,0
		C-475.7,619.4-476.4,617.2-475.5,615.3C-475.5,615.4-475.5,615.3-475.5,615.3z"/>
	<path id="Trazado_7248" class="st0" d="M-467,620c1.2-2.4,4.1-3.4,6.5-2.2c0,0,0,0,0.1,0c2.4,1.4,3.3,4.5,1.9,6.9l0,0
		c-1.2,2.4-4.1,3.4-6.5,2.2c0,0,0,0-0.1,0C-467.5,625.4-468.3,622.4-467,620z"/>
	<path id="Trazado_7249" class="st0" d="M-456.1,625.9c1.5-2.9,5-4,7.8-2.5l0,0c2.7,1.6,3.8,5,2.5,7.8c-1.5,2.9-5,4-7.8,2.6
		C-456.4,632.4-457.6,628.9-456.1,625.9C-456.1,626-456.1,626-456.1,625.9z"/>
	<path id="Trazado_7250" class="st0" d="M-445.1,631.9c1.5-3.2,5.3-4.6,8.5-3.1c0.2,0.1,0.4,0.2,0.6,0.3c3.2,2,4.4,6,2.8,9.4
		c-1.5,3.2-5.3,4.6-8.5,3.1c-0.2-0.1-0.4-0.2-0.6-0.3C-445.5,639.3-446.7,635.3-445.1,631.9z"/>
	<path id="Trazado_7251" class="st0" d="M-433.2,638.5c1.8-3.7,6.3-5.2,9.9-3.4c0.1,0.1,0.3,0.1,0.4,0.2c3.8,2.1,5.2,6.8,3.2,10.6
		l0,0c-1.8,3.7-6.3,5.2-9.9,3.4c-0.1-0.1-0.3-0.1-0.4-0.2C-433.8,647.3-435.1,642.6-433.2,638.5z"/>
	<path id="Trazado_7252" class="st0" d="M-421,645.1c2.1-4.3,7.3-6.2,11.6-4.1c0.2,0.1,0.4,0.2,0.6,0.3c4.4,2.5,6.3,8.1,3.8,12.5
		c-2.1,4.3-7.3,6.2-11.6,4.1c-0.2-0.1-0.4-0.2-0.6-0.3C-421.6,655.4-423.2,649.8-421,645.1L-421,645.1z"/>
	<path id="Trazado_7253" class="st0" d="M-482.1,628.1c1-1.8,3.2-2.5,5-1.6c1.8,1,2.5,3.2,1.6,5c-1,1.8-3.2,2.5-5,1.6l0,0
		C-482.3,632.2-483,630-482.1,628.1z"/>
	<path id="Trazado_7254" class="st0" d="M-473.6,632.8c1.2-2.4,4.1-3.4,6.5-2.2c0,0,0,0,0.1,0c2.4,1.2,3.3,4.1,2.1,6.4
		c-0.1,0.2-0.2,0.3-0.3,0.5c-1.2,2.4-4.1,3.4-6.5,2.2c0,0,0,0-0.1,0C-474,638.2-474.8,635.3-473.6,632.8z"/>
	<path id="Trazado_7255" class="st0" d="M-462.7,638.8c1.5-2.9,5-4,7.8-2.5l0,0c2.7,1.6,3.8,5,2.5,7.8c-1.5,2.9-5,4-7.8,2.6
		C-463,645.2-464.1,641.7-462.7,638.8C-462.7,638.9-462.7,638.8-462.7,638.8z"/>
	<path id="Trazado_7256" class="st0" d="M-451.7,644.8c1.5-3.2,5.4-4.6,8.6-3.1c0.2,0.1,0.3,0.2,0.5,0.2c3.2,2,4.4,6,2.8,9.4
		c-1.5,3.2-5.3,4.6-8.5,3.1c-0.2-0.1-0.4-0.2-0.6-0.3C-452,652.2-453.3,648.2-451.7,644.8z"/>
	<path id="Trazado_7257" class="st0" d="M-439.8,651.3c1.8-3.7,6.2-5.2,9.9-3.4c0.1,0.1,0.3,0.1,0.4,0.2c3.8,2.1,5.2,6.8,3.2,10.6
		l0,0c-1.8,3.7-6.3,5.2-9.9,3.4c-0.1-0.1-0.3-0.1-0.4-0.2C-440.4,660.1-441.7,655.1-439.8,651.3L-439.8,651.3z"/>
	<path id="Trazado_7258" class="st0" d="M-427.6,657.9c2.1-4.3,7.3-6.2,11.6-4.1c0.2,0.1,0.4,0.2,0.6,0.3c4.4,2.5,6.3,8.1,3.8,12.5
		c-0.3,0.3-0.3,0.6-0.6,0.9h-15C-428.9,664.6-429,661-427.6,657.9L-427.6,657.9z"/>
	<path id="Trazado_7259" class="st0" d="M-489,641.3c1-1.8,3.2-2.5,5-1.6c1.8,1,2.5,3.2,1.6,5c-1,1.8-3.2,2.5-5,1.6l0,0
		C-489.2,645.4-489.9,643.2-489,641.3C-489,641.4-489,641.3-489,641.3z"/>
	<path id="Trazado_7260" class="st0" d="M-480.2,646c1.2-2.4,4.1-3.4,6.5-2.2c0,0,0,0,0.1,0c2.4,1.2,3.3,4.1,2.1,6.4
		c-0.1,0.2-0.2,0.3-0.3,0.5c-1.2,2.4-4.1,3.4-6.5,2.2c0,0,0,0-0.1,0C-480.8,651.7-481.5,648.5-480.2,646z"/>
	<path id="Trazado_7261" class="st0" d="M-469.6,652c1.5-2.9,5-4,7.8-2.5l0,0c2.7,1.6,3.8,5,2.5,7.8c-1.5,2.8-5,3.9-7.9,2.5
		C-469.9,658.3-471,654.8-469.6,652z"/>
	<path id="Trazado_7262" class="st0" d="M-458.6,657.9c1.5-3.2,5.3-4.6,8.5-3.1c0.2,0.1,0.4,0.2,0.6,0.3c3.2,2,4.4,6,2.8,9.4
		c-0.8,1.5-2.2,2.7-3.8,3.4h-4.1c-0.3,0-0.6-0.3-1.3-0.6C-458.9,665.3-460.1,661.3-458.6,657.9L-458.6,657.9z"/>
	<path id="Trazado_7263" class="st0" d="M-446.7,664.5c1.8-3.7,6.3-5.2,9.9-3.4c0.1,0.1,0.3,0.1,0.4,0.2c2.5,1.2,4.1,3.8,4.1,6.6
		h-15.3C-447.3,666.7-447,665.4-446.7,664.5z"/>
	<path id="Trazado_7264" class="st0" d="M-495.2,653.2c0.9-1.8,3.1-2.5,4.9-1.6c0,0,0.1,0,0.1,0.1c1.8,1,2.5,3.2,1.5,5
		s-3.1,2.4-4.9,1.5C-495.4,657.3-496.1,655.1-495.2,653.2C-495.3,653.3-495.3,653.3-495.2,653.2z"/>
	<path id="Trazado_7265" class="st0" d="M-486.5,657.9c1.2-2.4,4.1-3.4,6.5-2.2c0,0,0,0,0.1,0c2.4,1.2,3.3,4.1,2.1,6.4
		c-0.1,0.2-0.2,0.3-0.3,0.5c-1.2,2.4-4.1,3.4-6.5,2.2c0,0,0,0-0.1,0C-486.9,663.3-487.7,660.4-486.5,657.9z"/>
	<path id="Trazado_7266" class="st0" d="M-475.8,663.9c1.5-2.9,5-4,7.8-2.5l0,0c2.2,1.2,3.4,3.8,2.8,6.3h-11
		C-476.5,666.4-476.4,665-475.8,663.9L-475.8,663.9z"/>
	<path id="Trazado_7267" class="st0" d="M-431.9,570.2c0.5,1.3,0.4,2.8-0.3,4.1c-1.2,2.4-4.1,3.4-6.5,2.2c0,0,0,0-0.1,0
		c-2.2-1.2-3.2-3.9-2.2-6.3H-431.9z"/>
	<path id="Trazado_7268" class="st0" d="M-430.1,575.5c1.5-2.9,5-4,7.8-2.5l0,0c2.7,1.6,3.8,5,2.5,7.8c-1.5,2.9-5,4-7.8,2.5l0,0
		c-2.8-1.2-4-4.4-2.8-7.2C-430.3,575.9-430.2,575.7-430.1,575.5z"/>
	<path id="Trazado_7269" class="st0" d="M-419.1,581.8c1.5-3.2,5.3-4.6,8.5-3.1c0.2,0.1,0.4,0.2,0.6,0.3c3.2,2,4.4,6,2.8,9.4
		c-1.5,3.2-5.3,4.6-8.5,3.1c-0.2-0.1-0.4-0.2-0.6-0.3C-419.4,589.2-420.6,585.2-419.1,581.8z"/>
	<path id="Trazado_7270" class="st0" d="M-407.2,588c1.8-3.7,6.2-5.2,9.9-3.4c0.1,0.1,0.3,0.1,0.4,0.2c3.8,2.1,5.2,6.8,3.2,10.6l0,0
		c-1.8,3.7-6.3,5.2-9.9,3.4c-0.1-0.1-0.3-0.1-0.4-0.2C-407.8,596.8-409.1,592.1-407.2,588L-407.2,588z"/>
	<path id="Trazado_7271" class="st0" d="M-395,594.9c2.1-4.3,7.3-6.2,11.6-4.1c0.2,0.1,0.4,0.2,0.6,0.3c4.4,2.5,6.3,8.1,3.8,12.5
		c-2.1,4.3-7.3,6.2-11.6,4.1c-0.2-0.1-0.4-0.2-0.6-0.3C-395.7,605-397.4,599.4-395,594.9L-395,594.9L-395,594.9z"/>
	<path id="Trazado_7272" class="st0" d="M-400.9,570.2c0.7,1.9,0.6,4.1-0.3,6c-1.5,3.2-5.3,4.6-8.5,3.1c-0.2-0.1-0.4-0.2-0.6-0.3
		c-3.1-1.7-4.5-5.5-3.1-8.8H-400.9z"/>
	<path id="Trazado_7273" class="st0" d="M-400.3,574.6c1.8-3.7,6.3-5.2,9.9-3.4c0.1,0.1,0.3,0.1,0.4,0.2c3.8,2.1,5.2,6.8,3.2,10.6
		l0,0c-1.8,3.7-6.3,5.2-9.9,3.4c-0.1-0.1-0.3-0.1-0.4-0.2C-400.8,583-402.1,578.4-400.3,574.6z"/>
	<path id="Trazado_7274" class="st0" d="M-388.1,581.1c2.1-4.3,7.3-6.2,11.6-4.1c0.2,0.1,0.4,0.2,0.6,0.3c4.4,2.5,6.3,8.1,3.8,12.5
		c-2.1,4.3-7.3,6.2-11.6,4.1c-0.2-0.1-0.4-0.2-0.6-0.3C-388.7,591.5-390.3,585.8-388.1,581.1L-388.1,581.1z"/>
	<path id="Trazado_7275" class="st0" d="M-418.5,667.6l45.8-89.9l-21,50.8c0,0,4.1,27.6,18.5,38.9h-43.2v0.2H-418.5z"/>
	<path id="Trazado_7276" class="st1" d="M-394,622.2c0-35.4,27.9-63.9,62.4-63.9s62.4,28.8,62.4,63.9c0,35.4-27.9,63.9-62.4,63.9
		S-394,657.6-394,622.2z"/>
	<path id="Trazado_7277" class="st0" d="M-387.1,622.8c0-35.4,27.9-63.9,62.4-63.9s62.4,28.8,62.4,63.9c0,35.4-27.9,63.9-62.4,63.9
		S-387.1,658.2-387.1,622.8z"/>
	<path id="Trazado_7398" class="st1" d="M-314.4,563h61.1l-51.4,62.7c-20.4-13.2-41.1-10.3-58.6-1.3L-314.4,563z"/>
	<path id="Trazado_7399" class="st2" d="M-208.5,611.5c-6.6,3.4-11.3,4.7-16.6,4.7c-9.4,0-14.4-5.3-12.8-13.5
		c1.6-8.5,8.1-13.5,17.6-13.5c5.3,0,9.7,1.6,14.7,5l2.8-16c-4.7-2.5-10.7-3.8-17.9-3.8c-19.4,0-33.2,12.5-36,28.5
		c-2.2,12.5,2.8,27.9,25.1,27.9c7.2,0.1,14.3-1.5,20.7-4.7C-211,626.3-208.5,611.5-208.5,611.5z"/>
	<path id="Trazado_7400" class="st2" d="M-205,603.1c-2.8,15.4,4.7,28.2,24.1,28.2c20.4,0,31.7-14.1,33.8-28.2
		c2.5-14.1-4.1-28.2-24.1-28.2C-190.6,574.9-202.2,588.3-205,603.1L-205,603.1z M-186.2,603.1c1.3-7.5,6-12.2,12.5-12.2
		c6.3,0,9.4,4.7,8.1,12.2s-6.3,12.2-12.5,12.2C-184.4,615-187.5,610.3-186.2,603.1L-186.2,603.1z"/>
	<path id="Trazado_7401" class="st2" d="M-149.9,630.3h18.8l4.1-22.9h5c5,0,7.2,5.3,9.4,14.7l1.9,8.1h18.5l-3.8-14.4
		c-1.9-6.6-3.1-10.3-6.6-11.9c6.3-2.5,9.7-6.9,11-12.8c1.6-8.5-3.4-15.7-17.9-15.7h-30.4L-149.9,630.3z M-125.7,599l2.5-14.7h5.3
		c6,0,8.8,2.5,7.8,7.2c-0.9,4.7-4.7,7.5-11,7.5H-125.7L-125.7,599z"/>
	<path id="Trazado_7402" class="st2" d="M-93.8,630.3H-75l4.1-22.9h5c5,0,7.2,5.3,9.4,14.7l1.9,8.1h18.5l-3.8-14.4
		c-1.9-6.6-3.1-10.3-6.6-11.9c6.3-2.5,9.7-6.9,11-12.8c1.6-8.5-3.4-15.7-17.9-15.7h-30.4L-93.8,630.3z M-69.7,599l2.5-14.7h5.3
		c6,0,8.8,2.5,7.8,7.2c-0.9,4.7-4.7,7.5-11,7.5H-69.7L-69.7,599z"/>
	<path id="Trazado_7403" class="st2" d="M-37.7,630.3H2.7l1.9-11.6H-17l1.9-10.3H4.3l2.2-11.6h-19.4l1.6-9.7H10l2.2-11.6h-40.1
		L-37.7,630.3z"/>
	<path id="Trazado_7404" class="st2" d="M7.4,603.1c-2.8,15.4,4.7,28.2,24.1,28.2c20.4,0,31.7-14.1,33.8-28.2
		c2.5-14.1-4.1-28.2-24.1-28.2C21.5,574.9,10,588.3,7.4,603.1z M26.2,603.1c1.3-7.5,6-12.2,12.5-12.2c6.3,0,9.4,4.7,8.1,12.2
		s-6.3,12.2-12.5,12.2C27.8,615,24.7,610.3,26.2,603.1L26.2,603.1z"/>
	<path id="Trazado_7405" class="st2" d="M-245.5,643.2h-6.6l-14.4,27.9h6.6l2.8-6h9.1l0.9,6h6.6L-245.5,643.2z M-249.9,649.1
		L-249.9,649.1l1.6,12.2h-6.9L-249.9,649.1L-249.9,649.1z"/>
	<path id="Trazado_7406" class="st2" d="M-225.1,643.5l-4.1,27.6h6.3l1.6-11.3h1.3c3.1,0,3.8,0.6,6.3,5.6l2.8,5.6h6.9l-4.4-8.8
		c-0.9-1.6-1.6-2.5-3.1-3.1l0,0c4.4-0.6,6.6-3.8,6.6-7.2s-2.5-8.1-10-8.1h-10v-0.3H-225.1z M-219.8,648.2h3.1c3.1,0,5,1.3,5,3.4
		c0,1.9-1.9,4.1-6,4.1h-3.1L-219.8,648.2L-219.8,648.2z"/>
	<path id="Trazado_7407" class="st2" d="M-164,644.4c-2.8-0.7-5.6-1-8.5-0.9c-15.4,0-21.3,8.8-21.3,16c0,6,4.4,12.5,16.6,12.5
		c3.1,0,7.5-0.3,9.1-0.9l2.2-14.1h-11.6l-0.6,4.4h5.3l-0.6,5c-1.4,0.3-2.9,0.6-4.4,0.6c-5.3,0-9.4-2.5-9.4-7.5
		c0-6.3,6-10.7,14.7-10.7c2.6,0,5.3,0.3,7.8,0.9L-164,644.4L-164,644.4z"/>
	<path id="Trazado_7408" class="st2" d="M-132.3,643.5h-18.2l-4.4,27.6h21.6l0.6-4.4h-15l0.9-7.2h10.7l0.6-4.7h-10.7l0.9-6.6h12.2
		L-132.3,643.5z"/>
	<path id="Trazado_7409" class="st2" d="M-91,643.5h-6.3l-2.5,18.2l0,0l-11.8-18.2h-6.3l-4.4,27.6h6.3l2.8-18.5h0.3l11.9,18.5h6
		L-91,643.5z"/>
	<path id="Trazado_7410" class="st2" d="M-54.3,643.5h-25.1l-0.6,4.7h9.4l-3.4,22.9h6.3l3.4-22.9h9.4L-54.3,643.5z"/>
	<path id="Trazado_7411" class="st2" d="M-36.4,643.5h-6.3l-4.1,27.6h6.3L-36.4,643.5z"/>
	<path id="Trazado_7412" class="st2" d="M4.6,643.5h-6.2l-2.5,18.2l0,0L-16,643.5h-6.3l-4.4,27.6h6.3l2.8-18.5h0.3l11.9,18.5h6
		L4.6,643.5z"/>
	<path id="Trazado_7413" class="st2" d="M47.2,655.7c0-7.5-6-12.5-14.4-12.5c-10,0-17.2,6.6-17.2,15.4c0,7.5,6.3,12.8,14.7,12.8
		C40,671.7,47.2,665.4,47.2,655.7L47.2,655.7z M40.7,656.4c-0.1,5.7-4.7,10.3-10.3,10.3c-5,0-8.5-3.1-8.5-8.1
		c0.1-5.6,4.7-10.1,10.3-10l0,0C37.2,648.5,40.7,651.6,40.7,656.4L40.7,656.4z"/>
</g>
<g>
	<path class="st3" d="M164,20.5c-4.7-0.2-9.4-0.1-14.2-0.1c0.7,3.7,1.5,7,1.9,10.4c2.6,26.3-18.1,49.5-44.7,50.1
		c-19.2,0.5-36.8-11.1-43.9-29.1c-0.6-1.5-1.3-2-2.9-2c-16.4,0.1-32.7,0-49.1,0c-0.6,0-1.3,0-2.1,0c0.1,0.8,0.1,1.5,0.2,2.1
		c8.8,41.6,49.8,69.1,91.8,61.4c37.5-6.8,64.7-38.7,65.2-76.7c0.1-4.7-0.6-9.5-1-14.2C165.2,21.8,164.5,20.5,164,20.5z"/>
	<path class="st3" d="M105.4,66c17.5,0.1,31.4-13.6,31.6-30.9c0.1-17-13.8-30.9-30.8-31.1C88.9,3.9,74.8,17.7,74.7,34.9
		C74.6,51.9,88.4,65.9,105.4,66z M105.8,18.7c9.2,0,16.5,7.3,16.5,16.5c0,9-7.5,16.3-16.5,16.3s-16.4-7.4-16.4-16.4
		C89.4,26,96.7,18.8,105.8,18.7z"/>
	<path class="st3" d="M314.5,81.1c0-0.7,0-1.5,0-2.4c-1.6,0-3,0-4.4,0c-4,0-4,0-5,3.8c0,0.1-0.2,0.2-0.4,0.4
		c-3.5-3.6-7.8-5.4-12.8-5.1c-5.1,0.3-9.4,2.3-12.7,6.1c-5.9,6.8-5.9,17.6-0.1,24.5c2.8,3.3,6.3,5.5,10.6,6.1
		c5.7,0.8,10.9-0.3,15.1-5.4c0,2.1,0.1,3.7,0,5.2c-0.5,4.6-3.5,7.6-8.2,8.3c-4.7,0.7-9-1.4-10.8-5.2c-0.2-0.4-0.6-1.1-1-1.1
		c-2.9-0.1-5.9,0-8.8,0c0.7,7,4.8,11.6,12.1,13.7c12.6,3.7,27.2-2.4,26.5-19.5C314.2,100.9,314.5,91,314.5,81.1z M294.8,106.4
		c-5.9,0-10.1-4.1-10.1-9.9c-0.1-5.9,4.1-10.1,10.1-10.1c5.9,0,10.1,4.1,10.1,10C304.8,102.1,300.6,106.4,294.8,106.4z"/>
	<path class="st3" d="M228.5,65.9c-0.5-1.3-1.2-1.9-2.6-1.8c-2.2,0.1-4.4,0.2-6.7,0c-1.7-0.1-2.3,0.5-2.9,2
		c-6.1,15.5-12.3,31-18.5,46.5c-0.2,0.6-0.4,1.2-0.7,2.1c2.9,0,5.7-0.1,8.4,0c1.3,0,1.9-0.5,2.3-1.7c1.1-2.9,2.3-5.7,3.3-8.6
		c0.4-1.1,0.9-1.4,2.1-1.4c6.1,0,12.2,0.1,18.4,0c1.3,0,1.8,0.4,2.2,1.5c1.1,2.9,2.2,5.9,3.4,8.8c0.2,0.5,0.9,1.2,1.5,1.3
		c3,0.1,6,0,9.3,0c-0.7-1.9-1.4-3.5-2-5.1C240,95.1,234.2,80.5,228.5,65.9z M214.6,95.4c2.5-6.5,5-12.8,7.7-19.7
		c2.7,6.8,5.1,13.2,7.7,19.7C224.7,95.4,219.8,95.4,214.6,95.4z"/>
	<path class="st3" d="M214.5,54.8c6.2,2.1,12.6,2.1,18.8-0.2c7-2.5,11.1-7.7,12.5-15.3c-3.2,0-6.1,0-9.1,0c-1.1,0-1.5,0.5-2,1.4
		c-1.1,1.7-2.2,3.6-3.8,4.8c-5.6,4-14.8,2.2-18.9-3.4c-4.5-6.1-4.4-18.1,0.1-24.2c3.3-4.4,7.9-5.6,13.1-5.1c4.8,0.5,8.2,2.9,9.7,7.6
		c0.1,0.4,0.6,1,1,1c3.2,0.1,6.4,0,9.7,0c-0.1-0.6-0.1-1.1-0.2-1.4c-2.1-9.2-8.3-14.7-18.7-15.8c-13.2-1.5-23.5,4.9-26.9,17.4
		c-1.3,4.8-1.5,9.7-0.5,14.5C201.1,45.1,205.7,51.8,214.5,54.8z"/>
	<path class="st3" d="M341.8,78.2c-11.6-1.8-20.5,4.4-22.3,15.6c-1.7,10.5,4.7,19.8,14.6,21.3c10.1,1.6,19.4-3.7,20.8-12.1
		c-2.6,0-5.1,0-7.6,0c-1.3,0-2,0.3-2.8,1.4c-2.1,2.9-6.1,3.9-9.8,2.5c-3.4-1.3-5.5-4.3-5.4-7.9c8.9,0,17.8,0,26.6,0
		C357.5,88.6,351.4,79.7,341.8,78.2z M346,92.9c-5.5,0-10.9,0-16.6,0c0.6-4.5,4.8-7.6,9.5-7.1C343.2,86.2,346.2,89.2,346,92.9z"/>
	<path class="st3" d="M471.8,79c-6-2.5-12.7-0.9-17.1,3.9c-0.2,0.2-0.4,0.4-0.9,0.8c-0.3-1.8-0.5-3.4-0.8-4.9c-2.9,0-5.5,0-8.3,0
		c0,12,0,23.8,0,35.7c3.2,0,6.3,0,9.5,0c0-0.8,0-1.6,0-2.3c0-5.6-0.1-11.2,0.1-16.7c0-1.7,0.5-3.6,1.3-5.2c1.6-3.4,5.5-4.9,9.3-4.1
		c3.1,0.7,5,3.2,5.3,7c0.1,0.9,0.1,1.9,0.1,2.8c0,5.5,0,10.9,0,16.3c0,0.7,0,1.4,0,2.2c3.3,0,6.4,0,9.9,0c-0.3-8.8-0.3-17.4-1-26
		C478.8,84.2,476.1,80.8,471.8,79z"/>
	<path class="st3" d="M386.3,78.5c-6.3-1.5-11.8-0.2-16.2,5.5c-0.3-2-0.5-3.5-0.7-5.1c-2.8,0-5.5,0-8.3,0c0,12,0,23.8,0,35.7
		c3.2,0,6.3,0,9.5,0c0-1,0-1.7,0-2.5c0-5.9-0.1-11.8,0.2-17.7c0.2-5.1,4-8.3,8.9-8.2c4.4,0.1,6.8,3.1,6.9,8.4c0,0.6,0,1.2,0,1.8
		c0,5.4,0,10.7,0,16.1c0,0.7,0,1.4,0,2.1c3.4,0,6.4,0,9.5,0c0-7.9,0.3-15.6-0.1-23.3C395.6,84.3,392,79.8,386.3,78.5z"/>
	<path class="st3" d="M61.7,20.4c-0.6,0-1.3,0-2.1,0c-16.1,0-32.2,0-48.3,0c-0.4,0-0.9-0.1-1.2,0c-0.6,0.3-1.4,0.8-1.4,1.2
		C8.2,26,7.7,30.3,7.2,34.9c17.8,0,35,0,52.2,0C60.2,30.1,61,25.4,61.7,20.4z"/>
	<path class="st3" d="M414.4,69.4c-2.9,0-5.6,0-8.5,0c-0.3,2.5-0.7,4.9-0.8,7.3c-0.1,1.7-0.8,2.2-2.3,2.1c-1.3-0.1-2.6,0-3.9,0
		c0,2.9,0,5.5,0,8.2c2,0,3.9,0,5.9,0c0,1.1,0,2.1,0,2.9c0.1,5.1,0,10.2,0.3,15.3c0.2,3.8,2.1,6.6,5.6,8.2c4.2,1.8,8.6,1.3,13,1.2
		c0-2.9,0-5.5,0-8.2c-1.8,0-3.4,0-5,0c-3.1-0.1-4.1-1-4.2-4.1c-0.1-3.3,0-6.6-0.1-9.9c0-1.8,0-3.6,0-5.6c3.4,0,6.4,0,9.5,0
		c0-2.8,0-5.3,0-8.1c-3.2,0-6.2,0-9.5,0C414.4,75.5,414.4,72.5,414.4,69.4z"/>
	<path class="st3" d="M301.2,53.1c0-4.4-0.1-8.7,0-13.1c0.1-6,4.6-10.5,10.7-10.6c0.7,0,1.4,0,2.2,0c0-3.6,0-6.9,0-10.3
		c-5.4,0-9.6,2.2-13,6.7c-0.4-2.3-0.6-4.2-0.9-6.1c-2.9,0-5.7,0-8.5,0c0,12,0,23.8,0,35.7c3.2,0,6.2,0,9.5,0
		C301.2,54.5,301.2,53.8,301.2,53.1z"/>
	<path class="st3" d="M327.5,53c0-4.3,0-8.6,0-12.9c0.1-5.3,3.4-9.3,8.6-10.5c1.4-0.3,2.7-0.3,4.2-0.5c0-3.4,0-6.8,0-10.2
		c-5.5,0-9.5,2.3-13,6.7c-0.3-2.4-0.6-4.2-0.8-6.1c-2.9,0-5.7,0-8.5,0c0,12,0,23.8,0,35.7c3.2,0,6.3,0,9.5,0
		C327.5,54.5,327.5,53.8,327.5,53z"/>
	<path class="st3" d="M260,85.1c-0.2-2-0.3-3.4-0.6-4.9c-0.1-0.5-0.6-1.4-1.1-1.4c-2.5-0.1-5.1-0.1-7.6-0.1c0,12.2,0,24,0,35.8
		c3.2,0,6.2,0,9.5,0c0-5.3,0-10.3,0-15.3c0-5.3,3.4-9.3,8.6-10.4c1.4-0.3,2.7-0.3,4.2-0.4c0-3.4,0-6.7,0-10.1
		C267.6,78.2,263.5,80.6,260,85.1z"/>
	<path class="st3" d="M430.2,78.7c-1.6-0.1-2.1,0.4-2.1,2c0.1,10.7,0,21.3,0,32c0,0.6,0.1,1.3,0.1,1.9c3.3,0,6.3,0,9.4,0
		c0-11.9,0-23.8,0-35.8C435.2,78.7,432.7,78.8,430.2,78.7z"/>
	<path class="st3" d="M433.2,62.8c-3.6,0-6.1,2.2-6.1,5.5c0,3.2,2.5,5.4,5.9,5.4s5.9-2.2,5.9-5.4C439,65,436.7,62.9,433.2,62.8z"/>
	<g>
		<path class="st4" d="M403.5,27.6c2.2,0.9,4,2.7,4.8,5.1c0.5,1.5,0.7,3.1,0.8,3.9c-0.1,3.5-0.5,6.2-2.4,8.3c-1.8,2-4,3.1-6.6,2.9
			c2.6,0.2,4.8-0.9,6.6-2.9c1.9-2.1,2.3-4.8,2.4-8.3c-0.2-0.8-0.4-2.4-0.8-3.9C407.5,30.3,405.7,28.5,403.5,27.6z"/>
		<path class="st4" d="M401.5,27.1c0.1,0,0.2,0,0.4,0.1C401.8,27.1,401.6,27.1,401.5,27.1z"/>
		<path class="st4" d="M402.5,27.3c0.3,0.1,0.6,0.2,0.9,0.3C403.1,27.5,402.8,27.4,402.5,27.3z"/>
		<path class="st4" d="M400.4,27C400.4,27,400.4,27,400.4,27C400.4,27,400.4,27,400.4,27C400.4,27,400.4,27,400.4,27z"/>
		<path class="st3" d="M400.6,18.6c-10.7,0-18.5,8-18.5,18.9c0,10.9,7.7,18.8,18.3,18.8c10.7,0,18.5-7.9,18.5-18.9
			C418.9,26.6,411.1,18.7,400.6,18.6z M406.8,44.9c-1.8,2-4,3.1-6.6,2.9c-0.4,0-0.8-0.1-1.2-0.1c-3.2-0.6-5.4-2.5-6.5-5.7
			c-1-3-1-6.1,0-9.1c1.1-3.5,4.2-5.8,7.8-5.9c0,0,0,0,0,0c0,0,0,0,0,0c0,0,0,0,0,0c0.4,0,0.8,0,1.1,0.1c0.1,0,0.2,0,0.4,0.1
			c0.2,0,0.4,0.1,0.6,0.1c0.3,0.1,0.6,0.2,0.9,0.3c0,0,0.1,0,0.1,0c2.2,0.9,4,2.7,4.8,5.1c0.5,1.5,0.7,3.1,0.8,3.9
			C409,40.1,408.7,42.8,406.8,44.9z"/>
		<path class="st3" d="M400.4,27c0.4,0,0.8,0,1.1,0.1C401.1,27,400.8,27,400.4,27z"/>
		<path class="st3" d="M392.6,42c-1-3-1-6.1,0-9.1c1.1-3.5,4.2-5.8,7.8-5.9c0,0,0,0,0,0c-3.6,0.1-6.7,2.4-7.8,5.9
			C391.6,35.9,391.5,39,392.6,42c1,3.2,3.2,5.1,6.4,5.7c0.4,0.1,0.8,0.1,1.2,0.1c-0.4,0-0.8-0.1-1.1-0.1
			C395.8,47.1,393.6,45.1,392.6,42z"/>
		<path class="st3" d="M403.4,27.6c0,0,0.1,0,0.1,0C403.5,27.6,403.4,27.6,403.4,27.6z"/>
		<path class="st3" d="M401.9,27.2c0.2,0,0.4,0.1,0.6,0.1C402.3,27.2,402.1,27.2,401.9,27.2z"/>
	</g>
	<path class="st3" d="M267.4,56.3c10.7,0,18.5-7.9,18.5-18.9c0-10.9-7.7-18.8-18.3-18.8c-10.7,0-18.5,8-18.5,18.9
		C249.1,48.3,256.8,56.3,267.4,56.3z M259.6,32.9c1.1-3.5,4.2-5.8,7.8-5.9c3.4-0.1,6.8,2.2,8,5.7c0.5,1.5,0.7,3.1,0.8,3.9
		c-0.1,3.5-0.5,6.2-2.4,8.3c-2.1,2.3-4.6,3.4-7.8,2.8c-3.2-0.6-5.5-2.6-6.5-5.7C258.6,39,258.7,35.9,259.6,32.9z"/>
	<path class="st3" d="M502.8,115.7c10.7,0,18.5-7.9,18.5-18.9c0-10.9-7.7-18.8-18.3-18.8c-10.7,0-18.5,8-18.5,18.9
		C484.4,107.7,492.2,115.6,502.8,115.7z M494.9,92.3c1.1-3.5,4.2-5.8,7.8-5.9c3.4-0.1,6.8,2.2,8,5.7c0.5,1.5,0.7,3.1,0.8,3.9
		c-0.1,3.5-0.5,6.2-2.4,8.3c-2.1,2.3-4.6,3.4-7.8,2.8c-3.2-0.6-5.5-2.6-6.5-5.7C494,98.4,494,95.3,494.9,92.3z"/>
	<path class="st3" d="M362.6,18.7c-10.8-1.2-19.5,6.1-20.4,17.3c-0.9,11.2,6.2,19.6,17.3,20.3c8.7,0.6,17.7-5.6,18-12.5
		c-2.5,0-5,0-7.4,0c-1.2,0-2.1,0.2-2.8,1.3c-2.1,2.9-5.9,3.9-9.6,2.7c-3.4-1.1-5.6-4.1-5.7-7.9c8.8,0,17.7,0,26.7,0
		C380.2,28.3,373.8,19.9,362.6,18.7z M352.3,33.6c0-3.8,3.7-6.9,8.3-7c4.6-0.1,8,2.7,8.3,7C363.3,33.6,357.8,33.6,352.3,33.6z"/>
</g>
<g id="DyuzTE_1_">
	
		<image style="overflow:visible;" width="1200" height="675" id="DyuzTE_2_" xlink:href="BE49449A0016EC0.jpg"  transform="matrix(0.2325 0 0 0.2325 104.2877 147.9689)">
	</image>
</g>
</svg>
