<svg id="Capa_1" data-name="Capa 1" xmlns="http://www.w3.org/2000/svg" viewBox="0 0 279.98 88.92"><defs><style>.cls-1{fill:#1d1d1b;}.cls-2{fill:#010101;}.cls-3{fill:#c52222;}</style></defs><path class="cls-1" d="M330.8,153.1l-16.06,0a4.69,4.69,0,0,0,1.3,3.38,4.8,4.8,0,0,0,3.69,1.37,4.62,4.62,0,0,0,4.46-2.68l5.65,2.54a10.89,10.89,0,0,1-4,4.38,12.11,12.11,0,0,1-6.76,1.75,10.79,10.79,0,0,1-7.81-3.11,10.62,10.62,0,0,1-3.21-8,14.15,14.15,0,0,1,3.81-10.24,11.94,11.94,0,0,1,8.84-3.95,10.68,10.68,0,0,1,7.84,2.85,9.85,9.85,0,0,1,2.9,7.36A13.4,13.4,0,0,1,330.8,153.1Zm-15.39-4.7h9.35v-.34a3.79,3.79,0,0,0-1-2.52,3.91,3.91,0,0,0-3.09-1.12A5.16,5.16,0,0,0,315.41,148.4Z" transform="translate(-308.08 -93.48)"/><path class="cls-1" d="M343.41,156.69l-5.61,6.48h-8.63l11.17-12.23-6.23-11.6h8l3.07,6.28,5.37-6.28h8.77l-11.08,12.08,6.29,11.75h-8Z" transform="translate(-308.08 -93.48)"/><path class="cls-1" d="M369.35,141.64a7.18,7.18,0,0,1,2.66-2,8.46,8.46,0,0,1,3.62-.79,8.68,8.68,0,0,1,6.93,2.78,10.63,10.63,0,0,1,2.42,7.24,15.74,15.74,0,0,1-3.62,10.66,11.25,11.25,0,0,1-8.85,4.2,9.64,9.64,0,0,1-4.36-.91,6.66,6.66,0,0,1-2.64-2.16l-2.39,11.6h-7.29l6.14-29a21.06,21.06,0,0,0,.43-4h7.09A10.21,10.21,0,0,1,369.35,141.64Zm3.84,3.55a5,5,0,0,0-4.15,2.15,8,8,0,0,0-1.66,5,5,5,0,0,0,1.25,3.62,4.24,4.24,0,0,0,3.17,1.27,5.39,5.39,0,0,0,4-1.92,7.47,7.47,0,0,0,1.8-5.32,4.85,4.85,0,0,0-1.23-3.55A4.24,4.24,0,0,0,373.19,145.19Z" transform="translate(-308.08 -93.48)"/><path class="cls-1" d="M405.4,146.67a9.79,9.79,0,0,0-2.87-.43q-4.65,0-5.95,6l-2.35,10.89H387l4.21-19.85a20.33,20.33,0,0,0,.44-4h7.09a14.48,14.48,0,0,1-.19,2.58,6.88,6.88,0,0,1,5.95-2.78,6.07,6.07,0,0,1,2.49.44Z" transform="translate(-308.08 -93.48)"/><path class="cls-1" d="M430.14,153.1l-16.06,0a4.69,4.69,0,0,0,1.3,3.38,4.8,4.8,0,0,0,3.69,1.37,4.61,4.61,0,0,0,4.46-2.68l5.66,2.54a11,11,0,0,1-4,4.38,12.13,12.13,0,0,1-6.76,1.75,10.8,10.8,0,0,1-7.82-3.11,10.62,10.62,0,0,1-3.21-8,14.15,14.15,0,0,1,3.81-10.24,12,12,0,0,1,8.85-3.95,10.68,10.68,0,0,1,7.83,2.85,9.86,9.86,0,0,1,2.91,7.36A13.4,13.4,0,0,1,430.14,153.1Zm-15.39-4.7h9.35v-.34a3.79,3.79,0,0,0-1-2.52,3.89,3.89,0,0,0-3.09-1.12A5.16,5.16,0,0,0,414.75,148.4Z" transform="translate(-308.08 -93.48)"/><path class="cls-1" d="M432.35,156l6.14-1a1.72,1.72,0,0,0-.05.43,3.13,3.13,0,0,0,.84,2.32,3.07,3.07,0,0,0,2.27.84,2.83,2.83,0,0,0,1.9-.55,1.78,1.78,0,0,0,.65-1.41,2.2,2.2,0,0,0-1.63-2.06l-2.31-1c-3.61-1.51-5.41-3.82-5.41-7a7.32,7.32,0,0,1,2.63-5.65,9.64,9.64,0,0,1,6.67-2.35,12.06,12.06,0,0,1,4.53.76,6.43,6.43,0,0,1,2.8,2,9.06,9.06,0,0,1,1.32,2.38,7,7,0,0,1,.41,2.35l-6.23.72q0-3-2.88-3a2.67,2.67,0,0,0-1.75.58,1.85,1.85,0,0,0-.7,1.49,1.74,1.74,0,0,0,1.3,1.72l3,1.2q5.42,2.21,5.42,7.14a7.45,7.45,0,0,1-2.54,5.57,9.66,9.66,0,0,1-6.91,2.39A12.4,12.4,0,0,1,437,163a6.52,6.52,0,0,1-2.95-2.15,10.1,10.1,0,0,1-1.32-2.45,6.9,6.9,0,0,1-.38-2.18Z" transform="translate(-308.08 -93.48)"/><path class="cls-1" d="M479.43,149.74a14.27,14.27,0,0,1-3.81,10,12.52,12.52,0,0,1-9.66,4.17,10.64,10.64,0,0,1-8-3.18,11,11,0,0,1-3.1-8,13.75,13.75,0,0,1,3.93-10.16,13,13,0,0,1,9.55-3.93,10.63,10.63,0,0,1,8,3.16A11,11,0,0,1,479.43,149.74Zm-11.6-4.46a5,5,0,0,0-4.15,2.11,8,8,0,0,0-1.6,5,4.91,4.91,0,0,0,1.22,3.54,4.1,4.1,0,0,0,3.14,1.3,5.37,5.37,0,0,0,3.95-1.87,7.29,7.29,0,0,0,1.8-5.27,4.91,4.91,0,0,0-1.17-3.53A4.4,4.4,0,0,0,467.83,145.28Z" transform="translate(-308.08 -93.48)"/><path class="cls-1" d="M481,156l6.13-1a2.37,2.37,0,0,0-.05.43,3.13,3.13,0,0,0,.84,2.32,3.08,3.08,0,0,0,2.28.84,2.82,2.82,0,0,0,1.89-.55,1.75,1.75,0,0,0,.65-1.41,2.19,2.19,0,0,0-1.63-2.06l-2.3-1c-3.61-1.51-5.42-3.82-5.42-7A7.3,7.3,0,0,1,486,141a9.63,9.63,0,0,1,6.66-2.35,12.06,12.06,0,0,1,4.53.76,6.47,6.47,0,0,1,2.81,2,9.06,9.06,0,0,1,1.32,2.38,7,7,0,0,1,.41,2.35l-6.24.72c0-2-1-3-2.87-3a2.66,2.66,0,0,0-1.75.58,1.82,1.82,0,0,0-.7,1.49,1.73,1.73,0,0,0,1.3,1.72l3,1.2q5.42,2.21,5.42,7.14a7.42,7.42,0,0,1-2.55,5.57,9.62,9.62,0,0,1-6.9,2.39,12.4,12.4,0,0,1-4.79-.84,6.47,6.47,0,0,1-2.95-2.15,9.45,9.45,0,0,1-1.32-2.45,6.63,6.63,0,0,1-.38-2.18Z" transform="translate(-308.08 -93.48)"/><path class="cls-1" d="M420.33,112.94a14.28,14.28,0,0,1-3.81,10,12.52,12.52,0,0,1-9.66,4.17,10.61,10.61,0,0,1-8-3.19,11,11,0,0,1-3.1-8,13.76,13.76,0,0,1,3.93-10.17,13,13,0,0,1,9.55-3.93,10.64,10.64,0,0,1,8,3.17A11,11,0,0,1,420.33,112.94Zm-11.6-4.46a5,5,0,0,0-4.15,2.11,8,8,0,0,0-1.6,5,4.94,4.94,0,0,0,1.22,3.55,4.12,4.12,0,0,0,3.14,1.29,5.37,5.37,0,0,0,4-1.87,7.27,7.27,0,0,0,1.8-5.27,4.89,4.89,0,0,0-1.17-3.52A4.36,4.36,0,0,0,408.73,108.48Z" transform="translate(-308.08 -93.48)"/><path class="cls-1" d="M434.23,108.91l-1.86,8.72a5.22,5.22,0,0,0-.1.82c0,1.37.81,2.06,2.44,2.06a7.35,7.35,0,0,0,1.78-.24L435.24,126a7.31,7.31,0,0,1-3.31.68,7.49,7.49,0,0,1-5.22-1.75,6,6,0,0,1-1.92-4.68,10.78,10.78,0,0,1,.24-2.06l1.92-9.3h-4.13l1.35-6.38h1.15c2.39,0,3.9-1.29,4.5-3.88l.72-3.07h6.52l-1.48,7h4.6l-1.39,6.38Z" transform="translate(-308.08 -93.48)"/><path class="cls-1" d="M459.41,109.87a9.91,9.91,0,0,0-2.88-.43q-4.65,0-5.95,6l-2.35,10.88H441l4.22-19.85a21,21,0,0,0,.43-4h7.09a14.6,14.6,0,0,1-.19,2.59,6.89,6.89,0,0,1,5.95-2.78,6.08,6.08,0,0,1,2.49.43Z" transform="translate(-308.08 -93.48)"/><path class="cls-1" d="M486,112.94a14.25,14.25,0,0,1-3.82,10,12.52,12.52,0,0,1-9.66,4.17,10.61,10.61,0,0,1-8-3.19,11,11,0,0,1-3.09-8,13.76,13.76,0,0,1,3.93-10.17,13,13,0,0,1,9.54-3.93,10.63,10.63,0,0,1,8,3.17A11,11,0,0,1,486,112.94Zm-11.61-4.46a5,5,0,0,0-4.14,2.11,7.91,7.91,0,0,0-1.61,5,5,5,0,0,0,1.22,3.55,4.14,4.14,0,0,0,3.14,1.29,5.4,5.4,0,0,0,4-1.87,7.27,7.27,0,0,0,1.8-5.27,4.85,4.85,0,0,0-1.18-3.52A4.33,4.33,0,0,0,474.36,108.48Z" transform="translate(-308.08 -93.48)"/><path class="cls-1" d="M487.5,119.17l6.14-1a2.47,2.47,0,0,0-.05.43,3.15,3.15,0,0,0,.84,2.33,3.08,3.08,0,0,0,2.28.84,2.88,2.88,0,0,0,1.89-.55,1.79,1.79,0,0,0,.65-1.42,2.21,2.21,0,0,0-1.63-2.06l-2.3-1q-5.43-2.25-5.42-7a7.32,7.32,0,0,1,2.64-5.66,9.66,9.66,0,0,1,6.66-2.35,12.06,12.06,0,0,1,4.53.77,6.37,6.37,0,0,1,2.81,2,9.26,9.26,0,0,1,1.31,2.37,7,7,0,0,1,.41,2.35L502,110c0-2-1-3-2.88-3a2.67,2.67,0,0,0-1.75.57,1.86,1.86,0,0,0-.69,1.49,1.75,1.75,0,0,0,1.29,1.73l3,1.2q5.43,2.2,5.42,7.14a7.44,7.44,0,0,1-2.54,5.56,9.64,9.64,0,0,1-6.9,2.4,12.41,12.41,0,0,1-4.8-.84,6.66,6.66,0,0,1-2.95-2.16,10.06,10.06,0,0,1-1.32-2.44,6.9,6.9,0,0,1-.38-2.18Z" transform="translate(-308.08 -93.48)"/><path class="cls-2" d="M375.68,119.28H336.15a3.83,3.83,0,1,0,0,7.66h39.53a3.83,3.83,0,0,0,0-7.66Z" transform="translate(-308.08 -93.48)"/><path class="cls-2" d="M379.51,104H349.63a3.83,3.83,0,1,0,0,7.66h29.88a3.83,3.83,0,0,0,0-7.66Z" transform="translate(-308.08 -93.48)"/><path class="cls-1" d="M558,147.6a17.4,17.4,0,1,0,17.4,17.4A17.43,17.43,0,0,0,558,147.6Zm0,25.87A8.47,8.47,0,1,1,566.5,165,8.47,8.47,0,0,1,558,173.47Z" transform="translate(-308.08 -93.48)"/><path class="cls-3" d="M581.43,130.93a2,2,0,0,0-.44-.22l-.3-.12-.44-.16a3.89,3.89,0,0,0-.44-.16c-2.72-1-7.78-2.74-8.64-5.22l-9.95-28.17a5.52,5.52,0,0,0-5.74-3.39h-30a.41.41,0,0,0-.11,0c-1.75.11-4.51.72-5.1,6.77l-9.33,58.26c-.57,2.63.11,4.17,1.14,4.94l.06,0a3.54,3.54,0,0,0,.41.26l.3.13.18.06a3,3,0,0,0,.43.1l.47.06H534a24,24,0,0,1,48,0h3a3,3,0,0,0,3-3V141.5A11.75,11.75,0,0,0,581.43,130.93ZM558,121.43a1.73,1.73,0,0,1-1.38.7h-27a1.73,1.73,0,0,1-1.7-2l1.59-13.54a1.73,1.73,0,0,1,1.7-1.44H553a1.73,1.73,0,0,1,1.65,1.24l3.58,13.53A1.72,1.72,0,0,1,558,121.43Z" transform="translate(-308.08 -93.48)"/></svg>