<svg xmlns="http://www.w3.org/2000/svg" width="583.624" height="137.026" viewBox="0 0 583.624 137.026">
  <g id="Grupo_35381" data-name="Grupo 35381" transform="translate(-14231.637 17983.848)">
    <path id="Trazado_7223" data-name="Trazado 7223" d="M33,194.675l57.056-56.712L33,78.5H90.4l54.306,60.837L89.025,194.675Z" transform="translate(14272.188 -18055.117)" fill="#76008b" fill-rule="evenodd"/>
    <path id="Trazado_7224" data-name="Trazado 7224" d="M11.6,194.675l57.056-56.712L11.6,78.5H69l54.306,60.837L67.281,194.675Z" transform="translate(14220.037 -18055.117)" fill="#fe7400" fill-rule="evenodd"/>
    <path id="Trazado_7225" data-name="Trazado 7225" d="M72.732,115.936C84.074,74,144.567,67.473,173.783,86.72c37.808,24.747,35.4,97.614-5.156,118.924-23.372,10.655-46.745,9.624-70.461,1.375-33.684-16.842-33.684-59.806-25.435-91.084Zm28.872,7.218c-5.156,17.529-3.437,35.059,3.093,52.588,9.624,20.623,47.089,25.091,61.524-3.437,4.812-15.811,4.468-33.34.687-52.244C156.6,90.845,113.633,89.126,101.6,123.154Z" transform="translate(14357.912 -18060.244)" fill="#76008b" fill-rule="evenodd"/>
    <path id="Trazado_7226" data-name="Trazado 7226" d="M142.2,207.079,196.163,77.5h25.779l54.994,129.579H247.72l-11.343-30.247H181.383l-11.343,30.247Zm46.057-52.932H227.44l-19.248-50.182-19.935,50.182Z" transform="translate(14538.325 -18057.555)" fill="#76008b" fill-rule="evenodd"/>
    <path id="Trazado_7227" data-name="Trazado 7227" d="M214.468,77.774H166c-26.122-1.719-49.151,18.217-53.275,37.808-3.781,17.873-5.5,36.433-.344,53.963,7.218,24.06,28.184,35.746,47.089,36.777h53.275l.344-20.966H160.161c-10.655-1.375-17.873-7.218-21.654-17.873-3.437-15.123-5.156-31.278,0-47.088,3.781-12.03,16.5-21.31,27.5-22h48.463V77.774Z" transform="translate(14457.804 -18057.141)" fill="#76008b" fill-rule="evenodd"/>
  </g>
</svg>
